<svg xmlns="http://www.w3.org/2000/svg" xmlns:xlink="http://www.w3.org/1999/xlink" width="500" zoomAndPan="magnify" viewBox="0 0 375 374.999991" height="500" preserveAspectRatio="xMidYMid meet" version="1.2"><defs><filter x="0%" y="0%" width="100%" filterUnits="objectBoundingBox" id="d8e91d789a" height="100%"><feColorMatrix values="0 0 0 0 1 0 0 0 0 1 0 0 0 0 1 0 0 0 1 0" type="matrix" in="SourceGraphic"/></filter><clipPath id="c84fbf3166"><path d="M 73.5 0 L 301.5 0 C 320.992188 0 339.6875 7.742188 353.472656 21.527344 C 367.257812 35.3125 375 54.007812 375 73.5 L 375 301.5 C 375 320.992188 367.257812 339.6875 353.472656 353.472656 C 339.6875 367.257812 320.992188 375 301.5 375 L 73.5 375 C 54.007812 375 35.3125 367.257812 21.527344 353.472656 C 7.742188 339.6875 0 320.992188 0 301.5 L 0 73.5 C 0 54.007812 7.742188 35.3125 21.527344 21.527344 C 35.3125 7.742188 54.007812 0 73.5 0 Z M 73.5 0 "/></clipPath><clipPath id="5b075d00f6"><rect x="0" width="375" y="0" height="375"/></clipPath><clipPath id="3a34e074be"><path d="M 118.363281 75 L 256.363281 75 L 256.363281 300 L 118.363281 300 Z M 118.363281 75 "/></clipPath></defs><g id="2f48733d67"><g mask="url(#d6983bc6e9)" transform="matrix(1,0,0,1,0,0)"><g clip-path="url(#5b075d00f6)"><g clip-rule="nonzero" clip-path="url(#c84fbf3166)"><rect x="0" width="375" height="375" y="0" style="fill:#231f20;fill-opacity:1;stroke:none;"/></g></g><mask id="d6983bc6e9"><g filter="url(#d8e91d789a)"><rect x="0" width="375" y="0" height="374.999991" style="fill:#000000;fill-opacity:0.24;stroke:none;"/></g></mask></g><g clip-rule="nonzero" clip-path="url(#3a34e074be)"><path style=" stroke:none;fill-rule:nonzero;fill:#231f20;fill-opacity:1;" d="M 227.15625 199.5 C 218.429688 199.5 210.609375 203.371094 205.25 209.46875 L 191.523438 199.734375 C 192.980469 195.714844 193.816406 191.398438 193.816406 186.882812 C 193.816406 182.441406 193.011719 178.199219 191.601562 174.238281 L 205.296875 164.605469 C 210.652344 170.671875 218.457031 174.523438 227.15625 174.523438 C 243.257812 174.523438 256.363281 161.398438 256.363281 145.257812 C 256.363281 129.121094 243.257812 115.992188 227.15625 115.992188 C 211.050781 115.992188 197.945312 129.121094 197.945312 145.257812 C 197.945312 148.148438 198.382812 150.933594 199.164062 153.570312 L 185.460938 163.207031 C 179.734375 156.09375 171.492188 151.125 162.101562 149.605469 L 162.101562 133.058594 C 175.332031 130.273438 185.300781 118.496094 185.300781 104.421875 C 185.300781 88.285156 172.195312 75.15625 156.089844 75.15625 C 139.988281 75.15625 126.882812 88.285156 126.882812 104.421875 C 126.882812 118.308594 136.59375 129.941406 149.558594 132.921875 L 149.558594 149.6875 C 131.863281 152.800781 118.363281 168.273438 118.363281 186.882812 C 118.363281 205.582031 131.996094 221.109375 149.820312 224.117188 L 149.820312 241.816406 C 136.722656 244.703125 126.882812 256.40625 126.882812 270.386719 C 126.882812 286.523438 139.988281 299.652344 156.089844 299.652344 C 172.195312 299.652344 185.300781 286.523438 185.300781 270.386719 C 185.300781 256.40625 175.460938 244.703125 162.363281 241.816406 L 162.363281 224.117188 C 164.597656 223.738281 166.785156 223.164062 168.917969 222.390625 C 171.050781 221.617188 173.097656 220.660156 175.058594 219.519531 C 177.019531 218.375 178.863281 217.066406 180.585938 215.589844 C 182.3125 214.113281 183.890625 212.496094 185.324219 210.734375 L 199.144531 220.535156 C 198.375 223.148438 197.945312 225.90625 197.945312 228.765625 C 197.945312 244.902344 211.050781 258.03125 227.15625 258.03125 C 243.257812 258.03125 256.363281 244.902344 256.363281 228.765625 C 256.363281 212.625 243.257812 199.5 227.15625 199.5 Z M 227.15625 131.070312 C 234.964844 131.070312 241.316406 137.4375 241.316406 145.257812 C 241.316406 153.082031 234.964844 159.449219 227.15625 159.449219 C 219.34375 159.449219 212.992188 153.082031 212.992188 145.257812 C 212.992188 137.4375 219.34375 131.070312 227.15625 131.070312 Z M 141.929688 104.421875 C 141.929688 96.597656 148.28125 90.234375 156.089844 90.234375 C 163.898438 90.234375 170.253906 96.597656 170.253906 104.421875 C 170.253906 112.242188 163.898438 118.609375 156.089844 118.609375 C 148.28125 118.609375 141.929688 112.242188 141.929688 104.421875 Z M 170.253906 270.386719 C 170.253906 278.210938 163.898438 284.574219 156.089844 284.574219 C 148.28125 284.574219 141.929688 278.210938 141.929688 270.386719 C 141.929688 262.566406 148.28125 256.199219 156.089844 256.199219 C 163.898438 256.199219 170.253906 262.566406 170.253906 270.386719 Z M 156.089844 206.667969 C 145.199219 206.667969 136.335938 197.792969 136.335938 186.882812 C 136.335938 175.96875 145.199219 167.089844 156.089844 167.089844 C 166.980469 167.089844 175.839844 175.96875 175.839844 186.882812 C 175.839844 197.792969 166.980469 206.667969 156.089844 206.667969 Z M 227.15625 242.953125 C 219.34375 242.953125 212.992188 236.585938 212.992188 228.765625 C 212.992188 220.941406 219.34375 214.574219 227.15625 214.574219 C 234.964844 214.574219 241.316406 220.941406 241.316406 228.765625 C 241.316406 236.585938 234.964844 242.953125 227.15625 242.953125 Z M 227.15625 242.953125 "/></g></g></svg>